<svg id="Capa_2" data-name="Capa 2" xmlns="http://www.w3.org/2000/svg" viewBox="0 0 5000 5000"><defs><style>.cls-1{fill:#fff;}</style></defs><title>logowithe</title><path class="cls-1" d="M1697.74,579.5c-3,.4-9.2,2.6-13.7,4.8a51.77,51.77,0,0,0-14.3,83.1c6.1,6.2,11.7,9.8,20.6,13.1l5.9,2.3,1031.2.5c567.1.3,1031.4.7,1031.7,1s-3.8,4-9.1,8c-21,16.2-65.5,52-89,71.7-253.2,211.5-465.4,453.7-613.7,700.6-49.4,82.2-95.1,171.2-130.1,253.2q-112.65,264-134.4,529.5c-3.8,45.2-4.3,57.2-4.8,114-.7,69.7,1,111,6.7,170,38.3,391.3,222.1,780.8,548.4,1161.4,118,137.7,259.7,279.6,409.8,410.4l17.9,15.7-6.3.2c-3.5.2-466,3.9-1027.8,8.3-862.8,6.8-1022.7,8.2-1029.5,9.5a49.22,49.22,0,0,0-27,14.1c-27.5,27.5-17.1,72.8,19.8,86.3l7.2,2.6,50.5-.3c78.1-.5,1914.3-15,1977-15.7l55.5-.5-4,3.6c-12.4,11.3-42.9,37-62.5,52.7-164.9,132.2-340.7,220.9-519.6,262.2-46.5,10.7-99.1,18.7-140.9,21.3-6.6.4-490,.5-1074.2.2l-1062.2-.5,15-12.4c96.9-79.8,201-178,289.9-273.6,254.5-273.7,437-568.5,537.3-867.5,48.4-144.5,77.5-287.9,88.1-435,5.4-74.4,5.4-158.3.1-235-13.6-193.2-62.2-389.3-144.4-581.7-30.9-72.3-73-156.6-114.8-229.7-91.9-160.7-212.3-325.6-352.7-483.1-49.4-55.3-86.9-94.9-150.1-158.1-64.8-64.8-101.6-99.9-161.8-154.3l-22.8-20.6,1043.3-.5c982-.5,1043.6-.6,1048.3-2.2a57.2,57.2,0,0,0,28.7-22.3c6.1-9.3,8.1-17.5,7.6-30.6-.4-10.4-.6-11.2-4.7-19.5-6.8-13.7-16.5-22.3-31.1-27.6l-6.5-2.3h-1117c-1081.5,0-1117.2.1-1123,1.8-9.9,3.1-17.1,7.5-23.9,14.8-12.7,13.4-17.2,30.1-13.1,47.7,3.2,13.5,8.4,20.4,27.5,36.5,133.1,112.2,265.8,238.3,374.5,355.7q455.85,492.6,585,997.5c56.3,219.6,65.6,441.4,27.9,661.5-56.7,331.1-218.3,658.7-478.6,970.2-87.7,104.9-195.4,215.8-299.4,308.2-74.6,66.4-158.9,133.9-211.5,169.3q-26.85,18.15-26.9,45.8c0,22.1,14.4,42,36,49.7l6.5,2.3,1141,.5c627.6.3,1148.2.2,1157-.2,43.4-2,91.7-8.4,143.5-19,158-32.2,319.2-101.4,469.5-201.7q259.05-172.95,475.8-462.8c123-164.7,232.9-353.4,332.9-571.8,103.6-226,197.7-492.1,273.1-772.5,19.8-73.3,19.9-73.9,20.4-84.1.8-15.6-3.4-26.6-14.4-38-10.5-11-22.2-15.9-37.4-15.9-10.6,0-19.1,2.4-27.5,7.8-7.4,4.8-15.5,13.6-18.8,20.5-1.4,2.8-6.4,19.8-11.1,37.7-69.6,263.6-147.2,494.4-237.5,706.5-122.9,288.6-264.9,530.9-427.1,729-24.8,30.3-62.2,73.4-79.5,91.5l-7.1,7.4-14.9-12.4c-141.2-118-283.3-252.7-396.9-376.5-107.6-117.1-201.5-235.1-278.6-350.3-23.6-35-43-65.3-42.7-66.2.2-.4,97.7-127.3,216.8-281.9,155.9-202.5,217.4-283,219.7-287.9,11-23.1,2.9-51.1-19-65.3-19.8-12.8-45.7-10.8-62.7,4.8-2.8,2.6-96.6,123.6-208.3,268.7s-203.6,264-204.2,263.9c-2.7-.2-54.1-99.8-75.2-145.8-141.2-308.2-185.9-613.7-134.7-921,34.1-204.8,112.1-409.8,232.1-610.3,125.6-209.9,297.6-415,504.3-601.3,98-88.3,202.1-170.6,296.2-234.3,25.8-17.4,30.1-21.3,35.3-31.6,5.5-10.8,7.1-25.5,4-36.9-5.1-19.2-22.3-35-41.5-38C3924.94,579.2,1706.24,578.3,1697.74,579.5Z"/></svg>